<svg width="60" height="40" viewBox="0 0 60 40" fill="none" xmlns="http://www.w3.org/2000/svg">
<path d="M9.00965 11.2693L9.00964 11.2668C8.98896 6.85246 12.3809 3.52907 16.1554 3.52907C19.9105 3.52907 23.2794 6.76743 23.2794 11.2252C23.2794 15.7472 19.9135 19.1635 16.1554 19.1635C12.3728 19.1635 9.00964 15.7443 9.00965 11.2693ZM49.7575 9.46436C49.7575 14.7124 45.8857 18.6572 41.4891 18.6572C37.0912 18.6572 33.2208 14.7108 33.2208 9.50839C33.2208 4.38373 37.1022 0.535714 41.4891 0.535714C45.8809 0.535714 49.7575 4.30069 49.7575 9.46436ZM24.9247 25.9589C22.758 27.8037 21.0437 30.2493 20.0895 32.6674C19.2058 34.9069 18.9357 37.2338 19.7009 39.0387H3.87375C2.5421 39.0387 1.72368 38.7717 1.24164 38.3664C0.779642 37.978 0.535714 37.3839 0.535714 36.493C0.535714 30.7284 6.46496 23.6024 16.1335 23.6024C19.7948 23.6024 22.6554 24.5856 24.9247 25.9589ZM55.3115 39.0387H27.6448C25.9447 39.0387 24.9052 38.7904 24.3005 38.3903C23.7477 38.0245 23.4924 37.4857 23.4924 36.647C23.4924 34.0147 25.1566 30.7742 28.2794 28.1719C31.386 25.5831 35.8923 23.6684 41.4671 23.6684C47.0532 23.6684 51.5652 25.5832 54.6745 28.172C57.8 30.7744 59.4643 34.0148 59.4643 36.647C59.4643 37.4856 59.2089 38.0244 58.656 38.3902C58.0512 38.7904 57.0116 39.0387 55.3115 39.0387Z" stroke="#374151" stroke-width="1.07143"/>
</svg>
